<svg version="1.1" xmlns="http://www.w3.org/2000/svg" xmlns:xlink="http://www.w3.org/1999/xlink" width="894" height="703"><defs><clipPath id="hFgvGJpmErSl"><path fill="none" stroke="none" d=" M 0 0 L 894 0 L 894 703 L 0 703 L 0 0 Z"/></clipPath></defs><g transform="scale(1,1)" clip-path="url(#hFgvGJpmErSl)"><g><rect fill="rgb(255,255,255)" stroke="none" x="0" y="0" width="894" height="703" fill-opacity="1"/><path fill="none" stroke="rgb(192,192,192)" paint-order="fill stroke markers" d=" M 13.5 0.5 L 13.5 703.5 M 13.5 0.5 L 13.5 703.5 M 110.5 0.5 L 110.5 703.5 M 207.5 0.5 L 207.5 703.5 M 402.5 0.5 L 402.5 703.5 M 499.5 0.5 L 499.5 703.5 M 596.5 0.5 L 596.5 703.5 M 693.5 0.5 L 693.5 703.5 M 790.5 0.5 L 790.5 703.5 M 887.5 0.5 L 887.5 703.5" stroke-opacity="1" stroke-linecap="round" stroke-linejoin="round" stroke-miterlimit="10"/><path fill="none" stroke="rgb(192,192,192)" paint-order="fill stroke markers" d=" M 33.5 0.5 L 33.5 703.5 M 52.5 0.5 L 52.5 703.5 M 72.5 0.5 L 72.5 703.5 M 91.5 0.5 L 91.5 703.5 M 130.5 0.5 L 130.5 703.5 M 149.5 0.5 L 149.5 703.5 M 169.5 0.5 L 169.5 703.5 M 188.5 0.5 L 188.5 703.5 M 227.5 0.5 L 227.5 703.5 M 246.5 0.5 L 246.5 703.5 M 266.5 0.5 L 266.5 703.5 M 285.5 0.5 L 285.5 703.5 M 324.5 0.5 L 324.5 703.5 M 343.5 0.5 L 343.5 703.5 M 363.5 0.5 L 363.5 703.5 M 382.5 0.5 L 382.5 703.5 M 421.5 0.5 L 421.5 703.5 M 440.5 0.5 L 440.5 703.5 M 460.5 0.5 L 460.5 703.5 M 479.5 0.5 L 479.5 703.5 M 518.5 0.5 L 518.5 703.5 M 537.5 0.5 L 537.5 703.5 M 557.5 0.5 L 557.5 703.5 M 576.5 0.5 L 576.5 703.5 M 615.5 0.5 L 615.5 703.5 M 634.5 0.5 L 634.5 703.5 M 654.5 0.5 L 654.5 703.5 M 673.5 0.5 L 673.5 703.5 M 712.5 0.5 L 712.5 703.5 M 731.5 0.5 L 731.5 703.5 M 751.5 0.5 L 751.5 703.5 M 770.5 0.5 L 770.5 703.5 M 809.5 0.5 L 809.5 703.5 M 828.5 0.5 L 828.5 703.5 M 848.5 0.5 L 848.5 703.5 M 867.5 0.5 L 867.5 703.5" stroke-opacity="0.23529411764705882" stroke-linecap="round" stroke-linejoin="round" stroke-miterlimit="10"/><path fill="none" stroke="rgb(192,192,192)" paint-order="fill stroke markers" d=" M 0.5 72.5 L 894.5 72.5 M 0.5 72.5 L 894.5 72.5 M 0.5 169.5 L 894.5 169.5 M 0.5 266.5 L 894.5 266.5 M 0.5 363.5 L 894.5 363.5 M 0.5 557.5 L 894.5 557.5 M 0.5 654.5 L 894.5 654.5" stroke-opacity="1" stroke-linecap="round" stroke-linejoin="round" stroke-miterlimit="10"/><path fill="none" stroke="rgb(192,192,192)" paint-order="fill stroke markers" d=" M 0.5 14.5 L 894.5 14.5 M 0.5 14.5 L 894.5 14.5 M 0.5 34.5 L 894.5 34.5 M 0.5 53.5 L 894.5 53.5 M 0.5 92.5 L 894.5 92.5 M 0.5 111.5 L 894.5 111.5 M 0.5 131.5 L 894.5 131.5 M 0.5 150.5 L 894.5 150.5 M 0.5 189.5 L 894.5 189.5 M 0.5 208.5 L 894.5 208.5 M 0.5 228.5 L 894.5 228.5 M 0.5 247.5 L 894.5 247.5 M 0.5 286.5 L 894.5 286.5 M 0.5 305.5 L 894.5 305.5 M 0.5 325.5 L 894.5 325.5 M 0.5 344.5 L 894.5 344.5 M 0.5 383.5 L 894.5 383.5 M 0.5 402.5 L 894.5 402.5 M 0.5 422.5 L 894.5 422.5 M 0.5 441.5 L 894.5 441.5 M 0.5 480.5 L 894.5 480.5 M 0.5 499.5 L 894.5 499.5 M 0.5 519.5 L 894.5 519.5 M 0.5 538.5 L 894.5 538.5 M 0.5 577.5 L 894.5 577.5 M 0.5 596.5 L 894.5 596.5 M 0.5 616.5 L 894.5 616.5 M 0.5 635.5 L 894.5 635.5 M 0.5 674.5 L 894.5 674.5 M 0.5 693.5 L 894.5 693.5" stroke-opacity="0.23529411764705882" stroke-linecap="round" stroke-linejoin="round" stroke-miterlimit="10"/><path fill="none" stroke="rgb(37,37,37)" paint-order="fill stroke markers" d=" M 304.5 2.5 L 304.5 703.5" stroke-opacity="1" stroke-miterlimit="10"/><path fill="none" stroke="rgb(37,37,37)" paint-order="fill stroke markers" d=" M 304.5 1.5 L 300.5 5.5" stroke-opacity="1" stroke-miterlimit="10"/><path fill="none" stroke="rgb(37,37,37)" paint-order="fill stroke markers" d=" M 304.5 1.5 L 308.5 5.5" stroke-opacity="1" stroke-miterlimit="10"/><path fill="none" stroke="rgb(37,37,37)" paint-order="fill stroke markers" d=" M 0.5 460.5 L 892.5 460.5" stroke-opacity="1" stroke-miterlimit="10"/><path fill="none" stroke="rgb(37,37,37)" paint-order="fill stroke markers" d=" M 893.5 460.5 L 889.5 456.5" stroke-opacity="1" stroke-miterlimit="10"/><path fill="none" stroke="rgb(37,37,37)" paint-order="fill stroke markers" d=" M 893.5 460.5 L 889.5 464.5" stroke-opacity="1" stroke-miterlimit="10"/><text fill="rgb(37,37,37)" stroke="none" font-family="geogebra-sans-serif, sans-serif" font-size="12px" font-style="normal" font-weight="normal" text-decoration="normal" x="8" y="476" text-anchor="start" dominant-baseline="alphabetic" fill-opacity="1">–3</text><text fill="none" stroke="rgb(255,255,255)" font-family="geogebra-sans-serif, sans-serif" font-size="12px" font-style="normal" font-weight="normal" text-decoration="normal" x="8" y="476" text-anchor="start" dominant-baseline="alphabetic" stroke-opacity="1" stroke-linejoin="bevel" stroke-miterlimit="10" stroke-width="3">–3</text><text fill="rgb(37,37,37)" stroke="none" font-family="geogebra-sans-serif, sans-serif" font-size="12px" font-style="normal" font-weight="normal" text-decoration="normal" x="8" y="476" text-anchor="start" dominant-baseline="alphabetic" fill-opacity="1">–3</text><text fill="rgb(37,37,37)" stroke="none" font-family="geogebra-sans-serif, sans-serif" font-size="12px" font-style="normal" font-weight="normal" text-decoration="normal" x="105" y="476" text-anchor="start" dominant-baseline="alphabetic" fill-opacity="1">–2</text><text fill="none" stroke="rgb(255,255,255)" font-family="geogebra-sans-serif, sans-serif" font-size="12px" font-style="normal" font-weight="normal" text-decoration="normal" x="105" y="476" text-anchor="start" dominant-baseline="alphabetic" stroke-opacity="1" stroke-linejoin="bevel" stroke-miterlimit="10" stroke-width="3">–2</text><text fill="rgb(37,37,37)" stroke="none" font-family="geogebra-sans-serif, sans-serif" font-size="12px" font-style="normal" font-weight="normal" text-decoration="normal" x="105" y="476" text-anchor="start" dominant-baseline="alphabetic" fill-opacity="1">–2</text><text fill="rgb(37,37,37)" stroke="none" font-family="geogebra-sans-serif, sans-serif" font-size="12px" font-style="normal" font-weight="normal" text-decoration="normal" x="202" y="476" text-anchor="start" dominant-baseline="alphabetic" fill-opacity="1">–1</text><text fill="none" stroke="rgb(255,255,255)" font-family="geogebra-sans-serif, sans-serif" font-size="12px" font-style="normal" font-weight="normal" text-decoration="normal" x="202" y="476" text-anchor="start" dominant-baseline="alphabetic" stroke-opacity="1" stroke-linejoin="bevel" stroke-miterlimit="10" stroke-width="3">–1</text><text fill="rgb(37,37,37)" stroke="none" font-family="geogebra-sans-serif, sans-serif" font-size="12px" font-style="normal" font-weight="normal" text-decoration="normal" x="202" y="476" text-anchor="start" dominant-baseline="alphabetic" fill-opacity="1">–1</text><text fill="rgb(37,37,37)" stroke="none" font-family="geogebra-sans-serif, sans-serif" font-size="12px" font-style="normal" font-weight="normal" text-decoration="normal" x="400" y="476" text-anchor="start" dominant-baseline="alphabetic" fill-opacity="1">1</text><text fill="none" stroke="rgb(255,255,255)" font-family="geogebra-sans-serif, sans-serif" font-size="12px" font-style="normal" font-weight="normal" text-decoration="normal" x="400" y="476" text-anchor="start" dominant-baseline="alphabetic" stroke-opacity="1" stroke-linejoin="bevel" stroke-miterlimit="10" stroke-width="3">1</text><text fill="rgb(37,37,37)" stroke="none" font-family="geogebra-sans-serif, sans-serif" font-size="12px" font-style="normal" font-weight="normal" text-decoration="normal" x="400" y="476" text-anchor="start" dominant-baseline="alphabetic" fill-opacity="1">1</text><text fill="rgb(37,37,37)" stroke="none" font-family="geogebra-sans-serif, sans-serif" font-size="12px" font-style="normal" font-weight="normal" text-decoration="normal" x="497" y="476" text-anchor="start" dominant-baseline="alphabetic" fill-opacity="1">2</text><text fill="none" stroke="rgb(255,255,255)" font-family="geogebra-sans-serif, sans-serif" font-size="12px" font-style="normal" font-weight="normal" text-decoration="normal" x="497" y="476" text-anchor="start" dominant-baseline="alphabetic" stroke-opacity="1" stroke-linejoin="bevel" stroke-miterlimit="10" stroke-width="3">2</text><text fill="rgb(37,37,37)" stroke="none" font-family="geogebra-sans-serif, sans-serif" font-size="12px" font-style="normal" font-weight="normal" text-decoration="normal" x="497" y="476" text-anchor="start" dominant-baseline="alphabetic" fill-opacity="1">2</text><text fill="rgb(37,37,37)" stroke="none" font-family="geogebra-sans-serif, sans-serif" font-size="12px" font-style="normal" font-weight="normal" text-decoration="normal" x="594" y="476" text-anchor="start" dominant-baseline="alphabetic" fill-opacity="1">3</text><text fill="none" stroke="rgb(255,255,255)" font-family="geogebra-sans-serif, sans-serif" font-size="12px" font-style="normal" font-weight="normal" text-decoration="normal" x="594" y="476" text-anchor="start" dominant-baseline="alphabetic" stroke-opacity="1" stroke-linejoin="bevel" stroke-miterlimit="10" stroke-width="3">3</text><text fill="rgb(37,37,37)" stroke="none" font-family="geogebra-sans-serif, sans-serif" font-size="12px" font-style="normal" font-weight="normal" text-decoration="normal" x="594" y="476" text-anchor="start" dominant-baseline="alphabetic" fill-opacity="1">3</text><text fill="rgb(37,37,37)" stroke="none" font-family="geogebra-sans-serif, sans-serif" font-size="12px" font-style="normal" font-weight="normal" text-decoration="normal" x="691" y="476" text-anchor="start" dominant-baseline="alphabetic" fill-opacity="1">4</text><text fill="none" stroke="rgb(255,255,255)" font-family="geogebra-sans-serif, sans-serif" font-size="12px" font-style="normal" font-weight="normal" text-decoration="normal" x="691" y="476" text-anchor="start" dominant-baseline="alphabetic" stroke-opacity="1" stroke-linejoin="bevel" stroke-miterlimit="10" stroke-width="3">4</text><text fill="rgb(37,37,37)" stroke="none" font-family="geogebra-sans-serif, sans-serif" font-size="12px" font-style="normal" font-weight="normal" text-decoration="normal" x="691" y="476" text-anchor="start" dominant-baseline="alphabetic" fill-opacity="1">4</text><text fill="rgb(37,37,37)" stroke="none" font-family="geogebra-sans-serif, sans-serif" font-size="12px" font-style="normal" font-weight="normal" text-decoration="normal" x="788" y="476" text-anchor="start" dominant-baseline="alphabetic" fill-opacity="1">5</text><text fill="none" stroke="rgb(255,255,255)" font-family="geogebra-sans-serif, sans-serif" font-size="12px" font-style="normal" font-weight="normal" text-decoration="normal" x="788" y="476" text-anchor="start" dominant-baseline="alphabetic" stroke-opacity="1" stroke-linejoin="bevel" stroke-miterlimit="10" stroke-width="3">5</text><text fill="rgb(37,37,37)" stroke="none" font-family="geogebra-sans-serif, sans-serif" font-size="12px" font-style="normal" font-weight="normal" text-decoration="normal" x="788" y="476" text-anchor="start" dominant-baseline="alphabetic" fill-opacity="1">5</text><text fill="rgb(37,37,37)" stroke="none" font-family="geogebra-sans-serif, sans-serif" font-size="12px" font-style="normal" font-weight="normal" text-decoration="normal" x="284" y="659" text-anchor="start" dominant-baseline="alphabetic" fill-opacity="1">–2</text><text fill="none" stroke="rgb(255,255,255)" font-family="geogebra-sans-serif, sans-serif" font-size="12px" font-style="normal" font-weight="normal" text-decoration="normal" x="284" y="659" text-anchor="start" dominant-baseline="alphabetic" stroke-opacity="1" stroke-linejoin="bevel" stroke-miterlimit="10" stroke-width="3">–2</text><text fill="rgb(37,37,37)" stroke="none" font-family="geogebra-sans-serif, sans-serif" font-size="12px" font-style="normal" font-weight="normal" text-decoration="normal" x="284" y="659" text-anchor="start" dominant-baseline="alphabetic" fill-opacity="1">–2</text><text fill="rgb(37,37,37)" stroke="none" font-family="geogebra-sans-serif, sans-serif" font-size="12px" font-style="normal" font-weight="normal" text-decoration="normal" x="284" y="562" text-anchor="start" dominant-baseline="alphabetic" fill-opacity="1">–1</text><text fill="none" stroke="rgb(255,255,255)" font-family="geogebra-sans-serif, sans-serif" font-size="12px" font-style="normal" font-weight="normal" text-decoration="normal" x="284" y="562" text-anchor="start" dominant-baseline="alphabetic" stroke-opacity="1" stroke-linejoin="bevel" stroke-miterlimit="10" stroke-width="3">–1</text><text fill="rgb(37,37,37)" stroke="none" font-family="geogebra-sans-serif, sans-serif" font-size="12px" font-style="normal" font-weight="normal" text-decoration="normal" x="284" y="562" text-anchor="start" dominant-baseline="alphabetic" fill-opacity="1">–1</text><text fill="rgb(37,37,37)" stroke="none" font-family="geogebra-sans-serif, sans-serif" font-size="12px" font-style="normal" font-weight="normal" text-decoration="normal" x="290" y="368" text-anchor="start" dominant-baseline="alphabetic" fill-opacity="1">1</text><text fill="none" stroke="rgb(255,255,255)" font-family="geogebra-sans-serif, sans-serif" font-size="12px" font-style="normal" font-weight="normal" text-decoration="normal" x="290" y="368" text-anchor="start" dominant-baseline="alphabetic" stroke-opacity="1" stroke-linejoin="bevel" stroke-miterlimit="10" stroke-width="3">1</text><text fill="rgb(37,37,37)" stroke="none" font-family="geogebra-sans-serif, sans-serif" font-size="12px" font-style="normal" font-weight="normal" text-decoration="normal" x="290" y="368" text-anchor="start" dominant-baseline="alphabetic" fill-opacity="1">1</text><text fill="rgb(37,37,37)" stroke="none" font-family="geogebra-sans-serif, sans-serif" font-size="12px" font-style="normal" font-weight="normal" text-decoration="normal" x="290" y="271" text-anchor="start" dominant-baseline="alphabetic" fill-opacity="1">2</text><text fill="none" stroke="rgb(255,255,255)" font-family="geogebra-sans-serif, sans-serif" font-size="12px" font-style="normal" font-weight="normal" text-decoration="normal" x="290" y="271" text-anchor="start" dominant-baseline="alphabetic" stroke-opacity="1" stroke-linejoin="bevel" stroke-miterlimit="10" stroke-width="3">2</text><text fill="rgb(37,37,37)" stroke="none" font-family="geogebra-sans-serif, sans-serif" font-size="12px" font-style="normal" font-weight="normal" text-decoration="normal" x="290" y="271" text-anchor="start" dominant-baseline="alphabetic" fill-opacity="1">2</text><text fill="rgb(37,37,37)" stroke="none" font-family="geogebra-sans-serif, sans-serif" font-size="12px" font-style="normal" font-weight="normal" text-decoration="normal" x="290" y="174" text-anchor="start" dominant-baseline="alphabetic" fill-opacity="1">3</text><text fill="none" stroke="rgb(255,255,255)" font-family="geogebra-sans-serif, sans-serif" font-size="12px" font-style="normal" font-weight="normal" text-decoration="normal" x="290" y="174" text-anchor="start" dominant-baseline="alphabetic" stroke-opacity="1" stroke-linejoin="bevel" stroke-miterlimit="10" stroke-width="3">3</text><text fill="rgb(37,37,37)" stroke="none" font-family="geogebra-sans-serif, sans-serif" font-size="12px" font-style="normal" font-weight="normal" text-decoration="normal" x="290" y="174" text-anchor="start" dominant-baseline="alphabetic" fill-opacity="1">3</text><text fill="rgb(37,37,37)" stroke="none" font-family="geogebra-sans-serif, sans-serif" font-size="12px" font-style="normal" font-weight="normal" text-decoration="normal" x="290" y="77" text-anchor="start" dominant-baseline="alphabetic" fill-opacity="1">4</text><text fill="none" stroke="rgb(255,255,255)" font-family="geogebra-sans-serif, sans-serif" font-size="12px" font-style="normal" font-weight="normal" text-decoration="normal" x="290" y="77" text-anchor="start" dominant-baseline="alphabetic" stroke-opacity="1" stroke-linejoin="bevel" stroke-miterlimit="10" stroke-width="3">4</text><text fill="rgb(37,37,37)" stroke="none" font-family="geogebra-sans-serif, sans-serif" font-size="12px" font-style="normal" font-weight="normal" text-decoration="normal" x="290" y="77" text-anchor="start" dominant-baseline="alphabetic" fill-opacity="1">4</text><text fill="rgb(37,37,37)" stroke="none" font-family="geogebra-sans-serif, sans-serif" font-size="12px" font-style="normal" font-weight="normal" text-decoration="normal" x="290" y="476" text-anchor="start" dominant-baseline="alphabetic" fill-opacity="1">0</text><text fill="none" stroke="rgb(255,255,255)" font-family="geogebra-sans-serif, sans-serif" font-size="12px" font-style="normal" font-weight="normal" text-decoration="normal" x="290" y="476" text-anchor="start" dominant-baseline="alphabetic" stroke-opacity="1" stroke-linejoin="bevel" stroke-miterlimit="10" stroke-width="3">0</text><text fill="rgb(37,37,37)" stroke="none" font-family="geogebra-sans-serif, sans-serif" font-size="12px" font-style="normal" font-weight="normal" text-decoration="normal" x="290" y="476" text-anchor="start" dominant-baseline="alphabetic" fill-opacity="1">0</text><path fill="none" stroke="rgb(0,0,0)" paint-order="fill stroke markers" d=" M 693.0080888057652 72.97124848309596 C 693.0080888057652 287.2624160158152 519.2907741227929 460.97973069878793 304.9996065900741 460.97973069878793 C 90.70843905735535 460.97973069878793 -83.00887562561695 287.2624160158152 -83.00887562561695 72.97124848309596 C -83.00887562561695 -141.3199190496233 90.70843905735535 -315.037233732596 304.9996065900741 -315.037233732596 C 519.2907741227929 -315.037233732596 693.0080888057652 -141.3199190496233 693.0080888057652 72.97124848309596 Z" stroke-opacity="0.6980392156862745" stroke-linejoin="round" stroke-miterlimit="10" stroke-width="2.5" stroke-dasharray="10.5,8"/><text fill="rgb(0,0,0)" stroke="none" font-family="geogebra-sans-serif, sans-serif" font-size="16px" font-style="normal" font-weight="normal" text-decoration="normal" x="110" y="-236" text-anchor="start" dominant-baseline="alphabetic" fill-opacity="1">d</text><text fill="none" stroke="rgb(255,255,255)" font-family="geogebra-sans-serif, sans-serif" font-size="16px" font-style="normal" font-weight="normal" text-decoration="normal" x="110" y="-236" text-anchor="start" dominant-baseline="alphabetic" stroke-opacity="1" stroke-linejoin="bevel" stroke-miterlimit="10" stroke-width="3">d</text><text fill="rgb(0,0,0)" stroke="none" font-family="geogebra-sans-serif, sans-serif" font-size="16px" font-style="normal" font-weight="normal" text-decoration="normal" x="110" y="-236" text-anchor="start" dominant-baseline="alphabetic" fill-opacity="1">d</text><path fill="none" stroke="rgb(0,0,0)" paint-order="fill stroke markers" d=" M 218.69771293840176 708 L 899 27.697712938400233" stroke-opacity="0.6980392156862745" stroke-linecap="round" stroke-linejoin="round" stroke-miterlimit="10" stroke-width="2.5"/><path fill="none" stroke="rgb(0,0,255)" paint-order="fill stroke markers" d=" M 304.9996065900741 72.97124848309596 L 304.9996065900741 460.97973069878793" stroke-opacity="0.6980392156862745" stroke-linecap="round" stroke-linejoin="round" stroke-miterlimit="10" stroke-width="2.5"/><path fill="none" stroke="rgb(0,0,255)" paint-order="fill stroke markers" d=" M 304.9996065900741 460.97973069878793 L 693.008088805765 460.979730698788" stroke-opacity="0.6980392156862745" stroke-linecap="round" stroke-linejoin="round" stroke-miterlimit="10" stroke-width="2.5"/><path fill="none" stroke="rgb(0,0,255)" paint-order="fill stroke markers" d=" M 693.008088805765 460.979730698788 L 304.9996065900741 72.97124848309596" stroke-opacity="0.6980392156862745" stroke-linecap="round" stroke-linejoin="round" stroke-miterlimit="10" stroke-width="2.5"/><path fill="none" stroke="rgb(255,0,0)" paint-order="fill stroke markers" d=" M 304.9996065900741 72.97124848309596 L 304.9996065900741 460.97973069878793" stroke-opacity="0.6980392156862745" stroke-linecap="round" stroke-linejoin="round" stroke-miterlimit="10" stroke-width="4"/><path fill="none" stroke="rgb(255,0,0)" paint-order="fill stroke markers" d=" M 304.9996065900741 72.97124848309596 L 579.3630355226892 347.3346774157117" stroke-opacity="0.6980392156862745" stroke-linecap="round" stroke-linejoin="round" stroke-miterlimit="10" stroke-width="4"/><path fill="none" stroke="rgb(0,0,0)" paint-order="fill stroke markers" d=" M 304.9996065900741 72.97124848309596 L 304.9996065900741 703" stroke-opacity="0.6980392156862745" stroke-linejoin="round" stroke-miterlimit="10" stroke-width="1.5" stroke-dasharray="5.5,4"/><path fill="none" stroke="rgb(0,0,0)" paint-order="fill stroke markers" d=" M 304.9996065900741 72.97124848309596 L 565.9660601533637 703" stroke-opacity="0.6980392156862745" stroke-linejoin="round" stroke-miterlimit="10" stroke-width="1.5" stroke-dasharray="9.5,4,1.5,4"/><path fill="rgb(77,77,255)" stroke="none" paint-order="stroke fill markers" d=" M 309.9996065900741 460.97973069878793 C 309.9996065900741 463.7411544479419 307.76103033922806 465.97973069878793 304.9996065900741 465.97973069878793 C 302.23818284092016 465.97973069878793 299.9996065900741 463.7411544479419 299.9996065900741 460.97973069878793 C 299.9996065900741 458.218306949634 302.23818284092016 455.97973069878793 304.9996065900741 455.97973069878793 C 307.76103033922806 455.97973069878793 309.9996065900741 458.218306949634 309.9996065900741 460.97973069878793 Z" fill-opacity="1"/><path fill="none" stroke="rgb(0,0,0)" paint-order="fill stroke markers" d=" M 309.9996065900741 460.97973069878793 C 309.9996065900741 463.7411544479419 307.76103033922806 465.97973069878793 304.9996065900741 465.97973069878793 C 302.23818284092016 465.97973069878793 299.9996065900741 463.7411544479419 299.9996065900741 460.97973069878793 C 299.9996065900741 458.218306949634 302.23818284092016 455.97973069878793 304.9996065900741 455.97973069878793 C 307.76103033922806 455.97973069878793 309.9996065900741 458.218306949634 309.9996065900741 460.97973069878793 Z" stroke-opacity="1" stroke-linecap="round" stroke-linejoin="round" stroke-miterlimit="10"/><text fill="rgb(77,77,255)" stroke="none" font-family="geogebra-sans-serif, sans-serif" font-size="16px" font-style="normal" font-weight="normal" text-decoration="normal" x="309" y="451" text-anchor="start" dominant-baseline="alphabetic" fill-opacity="1">B</text><text fill="none" stroke="rgb(255,255,255)" font-family="geogebra-sans-serif, sans-serif" font-size="16px" font-style="normal" font-weight="normal" text-decoration="normal" x="309" y="451" text-anchor="start" dominant-baseline="alphabetic" stroke-opacity="1" stroke-linejoin="bevel" stroke-miterlimit="10" stroke-width="3">B</text><text fill="rgb(77,77,255)" stroke="none" font-family="geogebra-sans-serif, sans-serif" font-size="16px" font-style="normal" font-weight="normal" text-decoration="normal" x="309" y="451" text-anchor="start" dominant-baseline="alphabetic" fill-opacity="1">B</text><path fill="rgb(77,77,255)" stroke="none" paint-order="stroke fill markers" d=" M 309.9996065900741 72.97124848309596 C 309.9996065900741 75.73267223224993 307.76103033922806 77.97124848309596 304.9996065900741 77.97124848309596 C 302.23818284092016 77.97124848309596 299.9996065900741 75.73267223224993 299.9996065900741 72.97124848309596 C 299.9996065900741 70.209824733942 302.23818284092016 67.97124848309596 304.9996065900741 67.97124848309596 C 307.76103033922806 67.97124848309596 309.9996065900741 70.209824733942 309.9996065900741 72.97124848309596 Z" fill-opacity="1"/><path fill="none" stroke="rgb(0,0,0)" paint-order="fill stroke markers" d=" M 309.9996065900741 72.97124848309596 C 309.9996065900741 75.73267223224993 307.76103033922806 77.97124848309596 304.9996065900741 77.97124848309596 C 302.23818284092016 77.97124848309596 299.9996065900741 75.73267223224993 299.9996065900741 72.97124848309596 C 299.9996065900741 70.209824733942 302.23818284092016 67.97124848309596 304.9996065900741 67.97124848309596 C 307.76103033922806 67.97124848309596 309.9996065900741 70.209824733942 309.9996065900741 72.97124848309596 Z" stroke-opacity="1" stroke-linecap="round" stroke-linejoin="round" stroke-miterlimit="10"/><text fill="rgb(77,77,255)" stroke="none" font-family="geogebra-sans-serif, sans-serif" font-size="16px" font-style="normal" font-weight="normal" text-decoration="normal" x="309" y="63" text-anchor="start" dominant-baseline="alphabetic" fill-opacity="1">A</text><text fill="none" stroke="rgb(255,255,255)" font-family="geogebra-sans-serif, sans-serif" font-size="16px" font-style="normal" font-weight="normal" text-decoration="normal" x="309" y="63" text-anchor="start" dominant-baseline="alphabetic" stroke-opacity="1" stroke-linejoin="bevel" stroke-miterlimit="10" stroke-width="3">A</text><text fill="rgb(77,77,255)" stroke="none" font-family="geogebra-sans-serif, sans-serif" font-size="16px" font-style="normal" font-weight="normal" text-decoration="normal" x="309" y="63" text-anchor="start" dominant-baseline="alphabetic" fill-opacity="1">A</text><path fill="rgb(68,68,68)" stroke="none" paint-order="stroke fill markers" d=" M 698.008088805765 460.979730698788 C 698.008088805765 463.74115444794194 695.7695125549191 465.979730698788 693.008088805765 465.979730698788 C 690.246665056611 465.979730698788 688.008088805765 463.74115444794194 688.008088805765 460.979730698788 C 688.008088805765 458.21830694963404 690.246665056611 455.979730698788 693.008088805765 455.979730698788 C 695.7695125549191 455.979730698788 698.008088805765 458.21830694963404 698.008088805765 460.979730698788 Z" fill-opacity="1"/><path fill="none" stroke="rgb(0,0,0)" paint-order="fill stroke markers" d=" M 698.008088805765 460.979730698788 C 698.008088805765 463.74115444794194 695.7695125549191 465.979730698788 693.008088805765 465.979730698788 C 690.246665056611 465.979730698788 688.008088805765 463.74115444794194 688.008088805765 460.979730698788 C 688.008088805765 458.21830694963404 690.246665056611 455.979730698788 693.008088805765 455.979730698788 C 695.7695125549191 455.979730698788 698.008088805765 458.21830694963404 698.008088805765 460.979730698788 Z" stroke-opacity="1" stroke-linecap="round" stroke-linejoin="round" stroke-miterlimit="10"/><text fill="rgb(68,68,68)" stroke="none" font-family="geogebra-sans-serif, sans-serif" font-size="16px" font-style="normal" font-weight="normal" text-decoration="normal" x="697" y="451" text-anchor="start" dominant-baseline="alphabetic" fill-opacity="1">C</text><text fill="none" stroke="rgb(255,255,255)" font-family="geogebra-sans-serif, sans-serif" font-size="16px" font-style="normal" font-weight="normal" text-decoration="normal" x="697" y="451" text-anchor="start" dominant-baseline="alphabetic" stroke-opacity="1" stroke-linejoin="bevel" stroke-miterlimit="10" stroke-width="3">C</text><text fill="rgb(68,68,68)" stroke="none" font-family="geogebra-sans-serif, sans-serif" font-size="16px" font-style="normal" font-weight="normal" text-decoration="normal" x="697" y="451" text-anchor="start" dominant-baseline="alphabetic" fill-opacity="1">C</text><path fill="rgb(68,68,68)" stroke="none" paint-order="stroke fill markers" d=" M 583.3630355226892 347.3346774157117 C 583.3630355226892 349.5438164150349 581.5721745220123 351.3346774157117 579.3630355226892 351.3346774157117 C 577.153896523366 351.3346774157117 575.3630355226892 349.5438164150349 575.3630355226892 347.3346774157117 C 575.3630355226892 345.12553841638857 577.153896523366 343.3346774157117 579.3630355226892 343.3346774157117 C 581.5721745220123 343.3346774157117 583.3630355226892 345.12553841638857 583.3630355226892 347.3346774157117 Z" fill-opacity="1"/><path fill="none" stroke="rgb(0,0,0)" paint-order="fill stroke markers" d=" M 583.3630355226892 347.3346774157117 C 583.3630355226892 349.5438164150349 581.5721745220123 351.3346774157117 579.3630355226892 351.3346774157117 C 577.153896523366 351.3346774157117 575.3630355226892 349.5438164150349 575.3630355226892 347.3346774157117 C 575.3630355226892 345.12553841638857 577.153896523366 343.3346774157117 579.3630355226892 343.3346774157117 C 581.5721745220123 343.3346774157117 583.3630355226892 345.12553841638857 583.3630355226892 347.3346774157117 Z" stroke-opacity="1" stroke-linecap="round" stroke-linejoin="round" stroke-miterlimit="10"/><text fill="rgb(68,68,68)" stroke="none" font-family="geogebra-sans-serif, sans-serif" font-size="16px" font-style="normal" font-weight="normal" text-decoration="normal" x="596" y="347" text-anchor="start" dominant-baseline="alphabetic" fill-opacity="1">B'</text><text fill="none" stroke="rgb(255,255,255)" font-family="geogebra-sans-serif, sans-serif" font-size="16px" font-style="normal" font-weight="normal" text-decoration="normal" x="596" y="347" text-anchor="start" dominant-baseline="alphabetic" stroke-opacity="1" stroke-linejoin="bevel" stroke-miterlimit="10" stroke-width="3">B'</text><text fill="rgb(68,68,68)" stroke="none" font-family="geogebra-sans-serif, sans-serif" font-size="16px" font-style="normal" font-weight="normal" text-decoration="normal" x="596" y="347" text-anchor="start" dominant-baseline="alphabetic" fill-opacity="1">B'</text><path fill="rgb(68,68,68)" stroke="none" paint-order="stroke fill markers" d=" M 469.7179822396132 460.97973069878793 C 469.7179822396132 463.1888696981111 467.92712123893637 464.97973069878793 465.7179822396132 464.97973069878793 C 463.50884324029005 464.97973069878793 461.7179822396132 463.1888696981111 461.7179822396132 460.97973069878793 C 461.7179822396132 458.7705916994648 463.50884324029005 456.97973069878793 465.7179822396132 456.97973069878793 C 467.92712123893637 456.97973069878793 469.7179822396132 458.7705916994648 469.7179822396132 460.97973069878793 Z" fill-opacity="1"/><path fill="none" stroke="rgb(0,0,0)" paint-order="fill stroke markers" d=" M 469.7179822396132 460.97973069878793 C 469.7179822396132 463.1888696981111 467.92712123893637 464.97973069878793 465.7179822396132 464.97973069878793 C 463.50884324029005 464.97973069878793 461.7179822396132 463.1888696981111 461.7179822396132 460.97973069878793 C 461.7179822396132 458.7705916994648 463.50884324029005 456.97973069878793 465.7179822396132 456.97973069878793 C 467.92712123893637 456.97973069878793 469.7179822396132 458.7705916994648 469.7179822396132 460.97973069878793 Z" stroke-opacity="1" stroke-linecap="round" stroke-linejoin="round" stroke-miterlimit="10"/><text fill="rgb(68,68,68)" stroke="none" font-family="geogebra-sans-serif, sans-serif" font-size="16px" font-style="normal" font-weight="normal" text-decoration="normal" x="470" y="453" text-anchor="start" dominant-baseline="alphabetic" fill-opacity="1">A'</text><text fill="none" stroke="rgb(255,255,255)" font-family="geogebra-sans-serif, sans-serif" font-size="16px" font-style="normal" font-weight="normal" text-decoration="normal" x="470" y="453" text-anchor="start" dominant-baseline="alphabetic" stroke-opacity="1" stroke-linejoin="bevel" stroke-miterlimit="10" stroke-width="3">A'</text><text fill="rgb(68,68,68)" stroke="none" font-family="geogebra-sans-serif, sans-serif" font-size="16px" font-style="normal" font-weight="normal" text-decoration="normal" x="470" y="453" text-anchor="start" dominant-baseline="alphabetic" fill-opacity="1">A'</text><path fill="rgb(68,68,68)" stroke="none" paint-order="stroke fill markers" d=" M 308.9996065900741 621.6981063483274 C 308.9996065900741 623.9072453476506 307.20874558939727 625.6981063483274 304.9996065900741 625.6981063483274 C 302.79046759075095 625.6981063483274 300.9996065900741 623.9072453476506 300.9996065900741 621.6981063483274 C 300.9996065900741 619.4889673490043 302.79046759075095 617.6981063483274 304.9996065900741 617.6981063483274 C 307.20874558939727 617.6981063483274 308.9996065900741 619.4889673490043 308.9996065900741 621.6981063483274 Z" fill-opacity="1"/><path fill="none" stroke="rgb(0,0,0)" paint-order="fill stroke markers" d=" M 308.9996065900741 621.6981063483274 C 308.9996065900741 623.9072453476506 307.20874558939727 625.6981063483274 304.9996065900741 625.6981063483274 C 302.79046759075095 625.6981063483274 300.9996065900741 623.9072453476506 300.9996065900741 621.6981063483274 C 300.9996065900741 619.4889673490043 302.79046759075095 617.6981063483274 304.9996065900741 617.6981063483274 C 307.20874558939727 617.6981063483274 308.9996065900741 619.4889673490043 308.9996065900741 621.6981063483274 Z" stroke-opacity="1" stroke-linecap="round" stroke-linejoin="round" stroke-miterlimit="10"/><text fill="rgb(68,68,68)" stroke="none" font-family="geogebra-sans-serif, sans-serif" font-size="16px" font-style="normal" font-weight="normal" text-decoration="normal" x="309" y="614" text-anchor="start" dominant-baseline="alphabetic" fill-opacity="1">D</text><text fill="none" stroke="rgb(255,255,255)" font-family="geogebra-sans-serif, sans-serif" font-size="16px" font-style="normal" font-weight="normal" text-decoration="normal" x="309" y="614" text-anchor="start" dominant-baseline="alphabetic" stroke-opacity="1" stroke-linejoin="bevel" stroke-miterlimit="10" stroke-width="3">D</text><text fill="rgb(68,68,68)" stroke="none" font-family="geogebra-sans-serif, sans-serif" font-size="16px" font-style="normal" font-weight="normal" text-decoration="normal" x="309" y="614" text-anchor="start" dominant-baseline="alphabetic" fill-opacity="1">D</text></g></g></svg>